<?xml version="1.0" encoding="UTF-8" standalone="no"?>
<!-- Created with Inkscape (http://www.inkscape.org/) -->

<svg
   version="1.1"
   id="svg1"
   width="2253.3333"
   height="441.33334"
   viewBox="0 0 2253.3333 441.33334"
   sodipodi:docname="img2.svg"
   inkscape:version="1.4 (86a8ad7, 2024-10-11)"
   xmlns:inkscape="http://www.inkscape.org/namespaces/inkscape"
   xmlns:sodipodi="http://sodipodi.sourceforge.net/DTD/sodipodi-0.dtd"
   xmlns="http://www.w3.org/2000/svg"
   xmlns:svg="http://www.w3.org/2000/svg">
  <defs
     id="defs1" />
  <sodipodi:namedview
     id="namedview1"
     pagecolor="#ffffff"
     bordercolor="#000000"
     borderopacity="0.25"
     inkscape:showpageshadow="2"
     inkscape:pageopacity="0.0"
     inkscape:pagecheckerboard="0"
     inkscape:deskcolor="#d1d1d1"
     inkscape:zoom="0.57081092"
     inkscape:cx="1408.5225"
     inkscape:cy="353.00656"
     inkscape:window-width="1920"
     inkscape:window-height="1111"
     inkscape:window-x="-9"
     inkscape:window-y="-9"
     inkscape:window-maximized="1"
     inkscape:current-layer="g1" />
  <g
     inkscape:groupmode="layer"
     inkscape:label="Image"
     id="g1">
    <path
       style="fill:#e7d6c4;fill-opacity:1;stroke-width:0;stroke-dasharray:none"
       d="m 1875.9999,439.96006 c -4.0333,-0.64716 -15.1333,-2.42433 -24.6666,-3.94925 -9.5334,-1.52493 -19.892,-3.35119 -23.0192,-4.05836 -3.1272,-0.70718 -7.7685,-1.28577 -10.3142,-1.28577 -2.5456,0 -7.187,-0.5843 -10.3142,-1.29844 -3.1272,-0.71415 -10.1858,-2.14503 -15.6858,-3.17974 -13.3787,-2.51695 -46.5631,-10.88672 -57.3333,-14.46061 -4.7667,-1.58174 -11.9241,-4.5541 -15.9055,-6.60525 -3.9813,-2.05116 -11.7831,-5.24278 -17.3373,-7.09249 -5.5542,-1.84972 -13.0524,-5.4632 -16.6626,-8.02996 -3.6592,-2.60165 -8.1811,-4.66685 -10.2182,-4.66685 -2.0098,0 -3.8894,-0.70574 -4.1769,-1.56831 -0.2876,-0.86257 -2.8876,-2.2318 -5.7778,-3.04272 -3.0617,-0.85901 -5.255,-2.29134 -5.255,-3.43169 0,-1.55829 1.7666,-1.88131 8.6666,-1.5846 24.3891,1.04876 68.8306,0.63007 80,-0.7537 6.9667,-0.86309 16.1278,-1.95566 20.358,-2.42793 4.2302,-0.47227 8.0156,-1.38346 8.412,-2.02486 0.3964,-0.6414 2.2641,-1.16619 4.1505,-1.16619 7.6877,0 54.6968,-19.14753 56.1906,-22.88737 0.2445,-0.61194 1.0084,-1.11263 1.6976,-1.11263 1.1582,0 14.2048,-8.31123 25.2017,-16.05467 7.5729,-5.33235 30.8381,-24.47306 37.4067,-30.77515 6.208,-5.95614 22.4505,-23.40798 27.2329,-29.26056 9.6069,-11.75675 12.8588,-16.34445 16.0524,-22.64678 7.4346,-14.67152 22.0293,-25.33525 59.9643,-43.81332 27.205,-13.2515 27.9893,-13.60852 42,-19.11681 1.8333,-0.72078 4.3752,-1.8405 5.6486,-2.48827 1.2734,-0.64778 3.2315,-1.17778 4.3514,-1.17778 1.1199,0 3.078,-0.52999 4.3514,-1.17777 6.2815,-3.19539 13.9846,-5.81399 35.6486,-12.11839 5.1333,-1.49384 13.5333,-3.95682 18.6667,-5.47328 5.1333,-1.51646 11.4333,-3.35337 14,-4.08201 2.5666,-0.72865 5.8666,-1.80755 7.3333,-2.39755 1.4667,-0.59 6.5667,-2.2806 11.3333,-3.75689 4.7667,-1.47629 13.064,-4.07101 18.4384,-5.76605 10.5032,-3.31259 13.0618,-2.88893 15.0525,2.49239 0.8836,2.38863 0.4175,3.27163 -2.5376,4.8077 -3.5257,1.83268 -13.1884,11.59844 -20.6538,20.87405 -11.4383,14.21206 -15.2512,19.16207 -24.0822,31.26447 -23.2773,31.90008 -34.9572,50.88275 -47.7849,77.66209 -5.0045,10.44748 -9.099,19.30401 -9.099,19.68119 0,0.37718 -1.1642,3.22925 -2.5872,6.33792 -5.0879,11.11579 -11.5983,29.97281 -20.3648,58.98547 -0.8864,2.93334 -3.2848,8.20974 -5.3298,11.72534 -2.045,3.51561 -3.7581,6.81561 -3.8068,7.33334 -0.049,0.51773 -2.1622,3.64132 -4.6968,6.94132 -2.5346,3.3 -5.5844,7.5 -6.7774,9.33334 -4.1642,6.39916 -15.8705,15.03693 -29.1039,21.475 -7.3333,3.56766 -14.5833,6.49529 -16.1111,6.50583 -1.5278,0.0105 -3.189,0.43037 -3.6916,0.93295 -1.5619,1.56197 -10.6934,4.37839 -14.264,4.39947 -1.87,0.011 -3.97,0.56477 -4.6666,1.2305 -0.6967,0.66573 -4.5667,1.58505 -8.6,2.04294 -12.4877,1.41768 -73.5933,1.94861 -81.3334,0.70669 z m 73.3334,-6.7135 c 16.6217,-1.80482 21.69,-2.60928 24.6666,-3.91515 1.4667,-0.64346 6.5667,-2.53 11.3334,-4.19233 9.8264,-3.42685 23.7882,-10.59645 30.5728,-15.69957 12.4025,-9.32873 26.5187,-32.00506 32.7023,-52.53344 4.507,-14.96212 7.36,-23.50981 9.4256,-28.2394 0.9609,-2.2 2.7738,-6.7 4.0289,-10 5.5323,-14.54677 17.7519,-40.65425 24.0265,-51.33333 21.9842,-37.41608 21.0178,-35.80747 22.0265,-36.66667 0.4304,-0.36666 5.0768,-6.96666 10.3253,-14.66667 13.8455,-20.31269 21.1533,-30.54 26.6762,-37.33333 2.6828,-3.3 5.7789,-7.14407 6.8802,-8.54238 1.1013,-1.3983 4.0365,-4.86416 6.5226,-7.7019 2.4862,-2.83774 4.2404,-5.43953 3.8981,-5.78177 -0.93,-0.93003 -11.4345,4.39804 -19.7517,10.01842 -4.0333,2.72555 -9.267,5.9492 -11.6303,7.16366 -3.7301,1.91687 -4.1947,2.71882 -3.5225,6.07995 0.6814,3.40683 0.081,4.37383 -4.9957,8.05163 -3.1735,2.29888 -8.4829,5.37981 -11.7986,6.84651 -15.5494,6.87825 -44.0781,26.49878 -64.7196,44.51079 -4.4,3.83948 -14.3,12.36506 -22,18.94572 -16.917,14.45783 -26.6933,24.02982 -46.0389,45.07701 -17.8052,19.37117 -21.7637,24.49021 -23.9696,30.99632 -2.1357,6.29943 -7.1632,9.38815 -9.7325,5.97933 -2.147,-2.84844 -1.3068,-7.88994 3.1929,-19.15913 9.496,-23.78199 17.0494,-35.88107 33.0795,-52.98629 7.2919,-7.78101 42.5632,-35.76706 51.1929,-40.61904 1.5118,-0.85002 6.3856,-4.09549 10.8305,-7.21216 4.445,-3.11667 8.6385,-5.66667 9.319,-5.66667 0.6806,0 1.4373,-0.46978 1.6818,-1.04397 0.2444,-0.57418 2.5444,-2.29267 5.1111,-3.81885 2.5667,-1.52618 8.7966,-5.31152 13.8442,-8.41186 5.0476,-3.10034 11.0476,-6.70726 13.3333,-8.01539 2.2857,-1.30812 8.195,-4.853 13.1317,-7.8775 4.9368,-3.0245 9.5868,-5.4991 10.3334,-5.4991 0.7465,0 1.3574,-0.46845 1.3574,-1.04101 0,-0.57256 1.65,-1.75473 3.6667,-2.62704 2.0166,-0.87232 8.4666,-4.59638 14.3333,-8.27569 5.8667,-3.67931 11.2667,-6.915 12,-7.19042 0.7333,-0.27541 0.9944,-0.87178 0.5802,-1.32526 -0.4141,-0.45348 -4.0057,0.36438 -7.9811,1.81746 -3.9755,1.45308 -8.4666,2.64196 -9.9803,2.64196 -1.5137,0 -3.3221,0.4905 -4.0188,1.08999 -0.6967,0.59949 -4.5667,1.8498 -8.6,2.77846 -17.3567,3.99634 -42.7986,12.12424 -50.9819,16.28712 -1.2734,0.64777 -3.1312,1.17777 -4.1285,1.17777 -0.9973,0 -3.5554,0.83456 -5.6848,1.85459 -2.1293,1.02002 -6.2715,2.87215 -9.2048,4.11583 -8.6041,3.64802 -44.6891,21.73702 -52.6741,26.40493 -22.8601,13.36368 -29.7415,20.0878 -36.4583,35.62465 -7.3565,17.01633 -28.6067,42.85768 -45.5026,55.33333 -1.9863,1.46667 -4.6061,3.63362 -5.8216,4.81544 -1.2155,1.18182 -6.0321,4.78182 -10.7035,8 -4.6713,3.21818 -10.8426,7.50123 -13.7138,9.5179 -2.8713,2.01666 -5.7063,3.66666 -6.3,3.66666 -0.5937,0 -2.1655,1.2 -3.4928,2.66667 -1.3273,1.46667 -2.9777,2.66667 -3.6675,2.66667 -0.6898,0 -2.8468,1.12975 -4.7933,2.51055 -8.6623,6.14472 -28.5042,16.59209 -40.8725,21.52065 -31.5382,12.56741 -47.1366,15.65076 -96.3564,19.04689 -12.6627,0.87372 -23.1627,2.16846 -23.3333,2.87721 -0.1707,0.70876 2.6897,2.45205 6.3564,3.874 3.6666,1.42195 11.5084,4.83452 17.4261,7.58349 14.9904,6.96355 42.756,15.24612 75.9072,22.64334 6.6,1.4727 14.5586,3.26253 17.6858,3.97742 3.1272,0.71488 7.6795,1.29978 10.1162,1.29978 4.4086,0 18.6524,2.02351 41.5313,5.90003 6.6,1.11828 14.1,2.25223 16.6667,2.51989 9.7797,1.01985 55.8312,0.66983 66.6667,-0.5067 z m 30.0126,-141.45144 c 8.0597,-8.17935 20.654,-20.23066 27.9874,-26.78068 7.3333,-6.55002 15.1333,-13.5638 17.3333,-15.58618 2.2,-2.02237 7.9,-6.8292 12.6667,-10.68184 4.7666,-3.85264 9.2726,-7.69666 10.0133,-8.54227 3.4641,-3.95475 18.2776,-15.71487 27.048,-21.47272 5.3504,-3.5126 9.5027,-6.61184 9.2273,-6.88721 -0.5602,-0.56025 -15.9116,7.46447 -16.9553,8.86315 -0.3667,0.49138 -2.1667,1.66873 -4,2.61632 -4.0461,2.09127 -39.0622,25.41687 -40,26.64557 -0.3667,0.48037 -3.4948,2.79757 -6.9513,5.14932 -11.796,8.02564 -32.206,28.0359 -41.4019,40.59102 -5.6516,7.7161 -12.3228,20.95707 -10.5587,20.95707 0.5154,0 7.5314,-6.6922 15.5912,-14.87155 z m -750.0711,103.73877 c -0.3988,-0.41909 -21.3988,-1.12456 -46.6667,-1.56772 -41.4332,-0.72667 -80.6008,-2.67465 -121.9415,-6.0647 -8.0666,-0.66149 -24.5666,-1.78553 -36.6666,-2.49788 -28.41201,-1.67265 -52.44358,-3.6073 -66.6667,-5.36696 -11.35399,-1.40471 -32.7613,-3.57984 -72.66667,-7.38345 -19.84477,-1.89152 -24.30192,-2.53731 -40.82651,-5.91527 -10.5567,-2.15801 -27.97483,-6.70246 -41.17348,-10.7423 -6.96667,-2.13235 -18.96667,-5.74608 -26.66667,-8.03051 -7.7,-2.28442 -16.4,-4.93337 -19.33333,-5.88656 -2.93333,-0.95319 -7.73333,-2.36901 -10.66667,-3.14627 -9.61068,-2.54659 -21.22287,-5.78395 -27.33333,-7.62024 -13.65497,-4.10356 -34.30902,-10.14173 -38.66666,-11.30413 -5.77281,-1.53989 -21.99906,-6.17881 -32.66667,-9.33907 -37.83722,-11.20922 -59.63054,-17.17093 -90,-24.62011 -49.18973,-12.06552 -70.20176,-16.24289 -131.99999,-26.24271 -11.80786,-1.91067 -36.98107,-4.36327 -66.87956,-6.51601 -21.19522,-1.52608 -93.54827,-2.007 -95.76573,-0.63654 -0.74906,0.46295 -4.2103,1.37487 -7.69165,2.0265 -3.48135,0.65163 -8.72972,1.78168 -11.66306,2.51122 -2.93333,0.72954 -9.83333,2.25503 -15.33333,3.38997 -10.10315,2.08483 -17.00499,4.00076 -34,9.43829 -5.13333,1.64241 -13.83333,4.30927 -19.33333,5.92636 -10.0595,2.95766 -19.72238,6.11037 -24.66667,8.04799 -1.46666,0.57477 -6.56666,2.09568 -11.33333,3.3798 -12.83071,3.45654 -19.60709,5.71411 -26.29045,8.75873 -3.29382,1.50051 -11.30986,4.75881 -17.813426,7.24066 -6.503568,2.48186 -16.536143,6.93824 -22.294613,9.90308 -10.945279,5.63535 -18.93484,7.03903 -18.93484,3.32666 0,-2.34173 6.470847,-8.49664 9,-8.56058 0.916667,-0.0232 1.666667,-0.49316 1.666667,-1.04442 0,-0.55126 2.828797,-2.50126 6.286216,-4.33334 3.457419,-1.83207 8.407419,-5.30103 11,-7.70879 2.592581,-2.40777 7.391861,-5.58069 10.665068,-7.05093 3.273207,-1.47025 6.873207,-3.4884 8,-4.48479 1.126788,-0.99639 7.748718,-4.78163 14.715378,-8.41164 6.96667,-3.63001 15.45254,-8.17535 18.8575,-10.10074 3.40496,-1.9254 9.40496,-4.76406 13.33334,-6.30812 3.92837,-1.54407 8.94249,-3.5791 11.14249,-4.52229 4.33361,-1.85791 11.93321,-4.74095 19.33334,-7.33441 2.56666,-0.89952 8.56666,-2.54203 13.33333,-3.65003 4.76667,-1.108 15.56667,-4.12882 24,-6.71294 15.01485,-4.60081 20.54003,-5.96403 34,-8.38876 3.66666,-0.66053 9.96666,-1.79614 14,-2.5236 35.1637,-6.34211 54.60242,-7.50271 123.99999,-7.40345 50.75327,0.0726 87.07133,2.45689 130.66666,8.57832 11.36667,1.59605 25.46667,3.37665 31.33334,3.95689 12.29721,1.21624 31.70902,4.18351 69.99999,10.70014 14.89055,2.53417 35.10565,5.32904 63.33334,8.75624 20.50409,2.48946 39.33815,5.41411 51.33333,7.97132 14.99282,3.19626 36.01633,7.01295 54.66666,9.92438 9.9,1.54546 20.7,3.3408 24,3.98965 3.3,0.64886 10.8,1.88657 16.66667,2.75047 10.83654,1.59575 23.16819,3.8784 40,7.4042 5.13333,1.07529 12.33333,2.5351 15.99999,3.24401 3.66667,0.70892 13.86667,2.87629 22.66667,4.8164 30.23543,6.66589 43.14798,8.84637 46.86401,7.91371 1.63372,-0.41004 6.45765,0.1865 10.71986,1.32564 4.2622,1.13915 12.84946,2.68955 19.08279,3.44535 6.23334,0.7558 15.83334,1.91644 21.33334,2.57922 5.5,0.66277 14.5,1.83465 20,2.60417 5.5,0.76952 13.3,1.70576 17.3333,2.08053 4.0334,0.37477 8.5334,1.19764 10,1.82861 2.8116,1.20953 16.0816,3.0256 39.3334,5.38294 17.8127,1.80592 37.2621,4.04308 46.6666,5.36783 4.179,0.58865 8.337,0.50017 9.6667,-0.2057 1.3928,-0.73939 3.2739,-0.75621 4.6667,-0.0417 2.5805,1.3238 15.9988,2.59062 38.3333,3.61905 8.0667,0.37144 22.1667,1.25238 31.3333,1.95763 20.8922,1.60738 54.952,3.58279 62,3.5959 160.7439,0.29909 154.8064,0.36992 184.6667,-2.20281 17.7412,-1.52855 29.2639,-2.99698 41.6666,-5.30988 30.0316,-5.60039 38.1608,-6.9075 67,-10.77307 26.903,-3.60604 32.976,-4.81076 42.9768,-8.52545 2.7628,-1.02621 7.8887,-2.60784 11.3909,-3.51474 3.5022,-0.9069 6.6877,-2.16661 7.0787,-2.79934 0.3911,-0.63274 1.7256,-1.14721 2.9657,-1.14327 1.24,0.004 7.0546,-1.85323 12.9213,-4.12704 5.8666,-2.27382 11.8666,-4.59118 13.3333,-5.1497 1.4667,-0.55851 6.8667,-2.85292 12,-5.09867 5.1333,-2.24576 11.7333,-5.08582 14.6667,-6.31124 16.7234,-6.98634 42.6102,-21.23607 46.0012,-25.32201 1.3857,-1.66971 1.1901,-1.99851 -1.1894,-1.99851 -1.5664,0 -3.8899,0.52743 -5.1633,1.17208 -3.2018,1.62089 -20.3356,6.06361 -36.9819,9.58922 -8.8284,1.86982 -17.8932,3.24167 -38,5.75084 -9.1666,1.14393 -18.4666,2.44763 -20.6666,2.8971 -2.2,0.44948 -7.9,1.36727 -12.6667,2.03955 -8.4507,1.19187 -15.3968,2.42944 -29.6667,5.28564 -3.85,0.7706 -9.4,1.70465 -12.3333,2.07567 -2.9333,0.37102 -6.5333,1.20648 -8,1.85657 -1.4667,0.65009 -5.0667,1.48554 -8,1.85656 -2.9333,0.37102 -8.6333,1.3286 -12.6667,2.12795 -26.6635,5.28435 -66.4911,8.23534 -109.8594,8.13993 -18.9894,-0.0418 -36.3894,-0.37359 -38.6667,-0.73737 -2.2773,-0.36378 -18.715,-1.00291 -36.5282,-1.42029 -17.8133,-0.41738 -33.1133,-1.00474 -34,-1.30523 -0.8868,-0.30049 -8.8123,-1.20141 -17.6123,-2.00204 -8.8,-0.80063 -18.4,-1.70083 -21.3333,-2.00045 -2.9334,-0.29961 -12.8334,-1.19387 -22,-1.98726 -9.1667,-0.79338 -20.8667,-2.00488 -26,-2.69222 -5.1334,-0.68735 -15.6334,-1.90697 -23.3334,-2.71029 -7.7,-0.80331 -16.5157,-2.01753 -19.5904,-2.69826 -3.0747,-0.68074 -7.5386,-1.2377 -9.9197,-1.2377 -2.3812,0 -7.6655,-0.58379 -11.7429,-1.29731 -4.0775,-0.71353 -15.5136,-2.50525 -25.4136,-3.98161 -38.0516,-5.67453 -74.343,-13.37329 -100.6667,-21.35515 -21.5236,-6.52638 -59.35929,-16.43206 -71.33334,-18.67564 -9.25791,-1.73466 -64.67054,-20.49416 -76.66666,-25.95488 -3.66667,-1.66909 -8.15639,-3.50215 -9.97716,-4.07346 -1.82077,-0.57131 -7.82077,-3.07877 -13.33333,-5.57214 -9.88711,-4.472 -13.12988,-5.89228 -19.02284,-8.33166 -12.85362,-5.32073 -29.47957,-12.98724 -35.1623,-16.21394 C 830.08174,165.7449 826.09519,164 824.97868,164 c -1.11652,0 -3.99307,-1.83375 -6.39233,-4.075 -4.30171,-4.01839 -4.32674,-4.11056 -1.80232,-6.63498 3.41597,-3.41597 20.44499,-4.44783 31.02069,-1.87967 14.10329,3.42479 31.2535,7.30004 50.07257,11.31436 10.33414,2.20439 23.88934,5.16114 30.12268,6.57056 13.57118,3.06858 69.82572,11.45557 86.00003,12.82174 2.9333,0.24776 10.1333,1.0714 16,1.83032 5.8666,0.75891 18.7666,2.3486 28.6666,3.53265 9.9,1.18405 22.5,2.69157 28,3.35004 21.0608,2.52142 38.738,3.89935 58.6667,4.57302 11.3667,0.38424 29.1791,1.27574 39.5832,1.98112 10.4041,0.70538 28.7041,1.27391 40.6666,1.26341 11.9626,-0.0105 38.5502,0.63158 59.0835,1.42686 31.4573,1.21838 42.37,1.10612 69.3334,-0.71321 17.6,-1.18754 48.2294,-2.61969 68.0653,-3.18255 19.836,-0.56287 36.6751,-1.40025 37.4204,-1.86086 0.7453,-0.46061 10.3159,-1.46895 21.268,-2.24074 23.7503,-1.67369 41.9816,-4.03112 44.161,-5.71031 0.9642,-0.74291 2.5534,-0.69832 4.0717,0.11425 3.1415,1.68132 34.7332,-0.17823 64.3469,-3.78758 5.5,-0.67035 15.7,-1.81082 22.6666,-2.53437 6.9667,-0.72356 18.6667,-1.96453 26,-2.75771 7.3334,-0.79318 19.9334,-2.04637 28,-2.78487 14.7827,-1.35335 24.9734,-2.60421 43.3334,-5.31895 5.5,-0.81325 13.6,-2.01101 18,-2.66169 8.6349,-1.27697 22.6608,-3.50814 33.3333,-5.3025 7.6537,-1.28682 20.1511,-3.30928 32.6667,-5.28647 4.7666,-0.75303 11.6666,-1.97425 15.3333,-2.71381 3.6667,-0.73957 9.0667,-1.68806 12,-2.10777 2.9333,-0.4197 6.5333,-1.28576 8,-1.92458 1.4667,-0.63881 5.3667,-1.45755 8.6667,-1.81941 3.3,-0.36186 9,-1.27395 12.6666,-2.02685 3.6667,-0.75291 9.6667,-1.95058 13.3334,-2.6615 3.6666,-0.71092 9.3666,-1.96462 12.6666,-2.78601 3.3,-0.82138 9,-2.01901 12.6667,-2.6614 3.6667,-0.64238 9.9667,-2.03678 14,-3.09866 4.0333,-1.06189 11.5333,-2.68139 16.6667,-3.5989 5.1333,-0.9175 12.6333,-2.70828 16.6666,-3.9795 4.0334,-1.27121 10.0334,-3.06125 13.3334,-3.97786 3.3,-0.9166 7.5,-2.12738 9.3333,-2.69062 1.8333,-0.56323 6.0333,-1.76204 9.3333,-2.66401 3.3,-0.90197 7.2,-2.14074 8.6667,-2.75283 1.4667,-0.61209 6.8667,-2.43157 12,-4.04329 5.1333,-1.61173 11.1333,-3.67003 13.3333,-4.57402 2.2,-0.90399 8.9438,-3.26331 14.9862,-5.24294 6.0423,-1.97963 11.3277,-4.152133 11.7453,-4.827784 0.4176,-0.675652 1.932,-1.228457 3.3653,-1.228457 1.4333,0 3.6479,-0.526347 4.9213,-1.169659 3.8902,-1.965316 11.6744,-4.163675 14.7433,-4.163675 1.5979,0 2.9053,-0.6 2.9053,-1.333333 0,-0.733333 1.8,-1.333333 4,-1.333333 2.2,0 4,-0.469011 4,-1.042247 0,-0.573235 2.85,-1.874129 6.3333,-2.890875 3.4834,-1.016746 7.2334,-2.297295 8.3334,-2.845664 1.1,-0.548369 4.1,-1.881895 6.6666,-2.963392 2.5667,-1.081496 8.9673,-3.831937 14.2235,-6.11209 5.2563,-2.280153 9.8624,-4.145733 10.236,-4.145733 0.3735,0 5.2255,-2.1 10.7821,-4.666667 5.5567,-2.566666 10.3855,-4.666666 10.7307,-4.666666 0.6731,0 13.2757,-5.693006 27.3611,-12.359914 4.7666,-2.256172 10.3456,-5.259674 12.3977,-6.674449 5.6319,-3.882772 24.4238,-12.965638 26.8251,-12.965638 1.1608,0 2.1105,-0.6 2.1105,-1.333333 0,-0.733334 0.7653,-1.333334 1.7006,-1.333334 0.9353,0 5.2853,-1.78117 9.6667,-3.958156 4.3813,-2.176985 9.016,-3.976985 10.2994,-4 1.2833,-0.02301 2.3333,-0.641844 2.3333,-1.375177 0,-0.733334 1.2,-1.333334 2.6667,-1.333334 1.4666,0 2.6666,-0.488686 2.6666,-1.085969 0,-1.6914048 10.5626,-6.9140309 13.9834,-6.9140309 4.4337,0 5.525,4.0938516 1.8785,7.0466519 -1.6324,1.321836 -3.7795,2.091949 -4.7713,1.711364 -0.9918,-0.380586 -4.3429,0.809493 -7.4469,2.644621 -7.4666,4.414341 -51.2107,25.930697 -52.7187,25.930697 -0.6481,0 -2.2643,1.2 -3.5916,2.666667 -1.3274,1.466667 -3.0822,2.666667 -3.8996,2.666667 -0.8174,0 -5.0744,2.685193 -9.46,5.967097 -4.3856,3.281903 -10.0574,7.031903 -12.604,8.333333 -2.5466,1.30143 -5.2466,2.819005 -6,3.372389 -0.7534,0.553384 -4.9698,3.318567 -9.3698,6.144851 -4.4,2.826285 -11.9,7.707713 -16.6666,10.847618 -4.7667,3.139905 -13.1667,8.033347 -18.6667,10.874315 -11.2711,5.821956 -11.781,6.123068 -24.6667,14.565319 -11.7416,7.69275 -30.3732,18.60083 -37.2506,21.80888 -2.8879,1.34707 -10.6146,5.66754 -17.1704,9.60104 -6.5558,3.93351 -12.2458,7.15183 -12.6443,7.15183 -0.3986,0 -1.6719,0.82677 -2.8297,1.83727 -1.1577,1.0105 -6.119,3.98295 -11.025,6.60545 -12.0282,6.42957 -14.9604,8.0949 -15.7466,8.94321 -0.8842,0.95392 -14.0912,6.73587 -27.3334,11.96634 -5.8666,2.31725 -13.8344,5.66096 -17.7062,7.43046 -3.8717,1.7695 -7.8017,3.21727 -8.7333,3.21727 -0.9316,0 -2.2638,0.50644 -2.9605,1.12543 -0.6966,0.61899 -4.8666,2.49039 -9.2666,4.15867 -4.4,1.66828 -13.5691,5.36184 -20.3756,8.2079 -6.8066,2.84607 -13.2648,5.17466 -14.3515,5.17466 -1.0867,0 -3.0176,0.52635 -4.291,1.16966 -3.5506,1.79373 -11.5732,4.16368 -14.0947,4.16368 -1.2412,0 -3.2986,0.53205 -4.572,1.18233 -1.2734,0.65027 -6.5152,2.53712 -11.6486,4.19299 -5.1333,1.65586 -9.9033,3.52382 -10.6,4.151 -0.6966,0.62719 -2.3548,1.14035 -3.6847,1.14035 -1.33,0 -3.46,0.54597 -4.7334,1.21328 -4.7372,2.4825 -16.7476,6.78672 -18.9374,6.78672 -1.2467,0 -2.6732,0.4065 -3.17,0.90334 -0.8669,0.86686 -9.7992,4.15577 -26.8745,9.89531 -10.2984,3.46162 -16.6666,6.39378 -16.6666,7.6739 0,1.00217 -7.6449,6.79266 -18,13.63391 -19.8684,13.12627 -40.7508,26.5602 -41.2866,26.5602 -0.3495,0 -3.203,1.71218 -6.3411,3.80484 -8.782,5.85627 -21.9752,13.5285 -23.2638,13.5285 -0.6359,0 -3.4391,1.55131 -6.2294,3.44735 -8.0805,5.49084 -44.476,23.70111 -56.8791,28.45911 -13.7581,5.27779 -17.3075,6.71902 -20.3153,8.2491 -1.2733,0.64777 -3.4879,1.17777 -4.9213,1.17777 -1.4333,0 -2.9769,0.6 -3.4301,1.33333 -0.4532,0.73334 -2.1686,1.33334 -3.812,1.33334 -1.6434,0 -3.558,0.49567 -4.2547,1.10149 -0.6966,0.60582 -3.9666,1.86831 -7.2666,2.80552 -3.3,0.93721 -7.3783,2.24154 -9.0628,2.89851 -1.6845,0.65696 -4.4991,1.19448 -6.2546,1.19448 -1.7556,0 -3.5627,0.6 -4.016,1.33333 -0.4532,0.73333 -2.5532,1.33333 -4.6666,1.33333 -2.1135,0 -4.1725,0.53371 -4.5756,1.18602 -0.4032,0.65231 -2.6886,1.50896 -5.0787,1.90366 -2.3902,0.3947 -7.0457,1.3938 -10.3457,2.22022 -3.3,0.82642 -8.4,2.03697 -11.3334,2.69011 -2.9333,0.65313 -7.7333,1.79289 -10.6666,2.5328 -2.9334,0.73991 -8.0334,2.02157 -11.3334,2.84815 -3.3,0.82657 -8.4,1.78806 -11.3333,2.13663 -2.9333,0.34857 -6.5333,1.16251 -8,1.80875 -1.4667,0.64623 -4.7667,1.46289 -7.3333,1.81479 -2.5667,0.35189 -8.8667,1.32067 -14,2.15284 -35.363,5.73271 -83.7121,9.97526 -152,13.33777 -51.4471,2.53327 -65.3281,3.00301 -66.0585,2.23548 z m 60.0585,-7.63061 c 65.9544,-3.09895 119.145,-7.11546 128.6666,-9.71584 1.4667,-0.40055 6.5667,-1.0552 11.3334,-1.45478 4.7666,-0.39959 11.9666,-1.32539 16,-2.05734 4.0333,-0.73196 10.6333,-1.90516 14.6666,-2.60713 4.0334,-0.70196 10.0334,-1.85169 13.3334,-2.55495 3.3,-0.70325 9,-1.88532 12.6666,-2.62681 15.2002,-3.07386 44.7562,-10.41903 49.7294,-12.35861 1.6846,-0.65696 4.2427,-1.19448 5.6848,-1.19448 1.4421,0 3.6639,-0.52635 4.9373,-1.16966 1.2734,-0.64331 4.4152,-1.7622 6.9819,-2.48643 13.2039,-3.72567 16.776,-4.90272 17.9333,-5.90908 0.6967,-0.60582 2.3548,-1.1015 3.6848,-1.1015 1.3299,0 3.4599,-0.52999 4.7333,-1.17777 3.0902,-1.57197 7.3748,-3.3013 16.9819,-6.854 24.6076,-9.09991 83.8959,-39.85016 81.4839,-42.26215 -0.7222,-0.72211 -10.2294,2.34588 -12.0839,3.89945 -0.6967,0.58362 -2.3322,1.06114 -3.6344,1.06114 -1.3023,0 -4.3323,1.19776 -6.7334,2.66168 -2.401,1.46393 -5.6801,2.66393 -7.2868,2.66667 -1.6068,0.003 -3.2922,0.60498 -3.7454,1.33832 -0.4532,0.73333 -2.1686,1.33333 -3.812,1.33333 -1.6434,0 -3.558,0.49567 -4.2547,1.10149 -0.6966,0.60582 -3.9666,1.9139 -7.2666,2.90684 -3.3,0.99294 -6.6,2.22189 -7.3334,2.73099 -0.7333,0.50911 -3.1333,1.26412 -5.3333,1.6778 -2.2,0.41368 -6.7,1.39101 -10,2.17185 -3.3,0.78083 -10.8,2.04284 -16.6667,2.80446 -36.4395,4.73061 -47.4284,6.28445 -56,7.91844 -13.7507,2.62129 -23.6854,4.0844 -32.6666,4.81092 -4.7667,0.38559 -9.8667,1.24074 -11.3334,1.90035 -2.6483,1.19104 -10.2086,2.04455 -30.6649,3.46184 -5.8657,0.4064 -11.3394,1.29872 -12.1639,1.98294 -1.9555,1.62289 -154.6985,2.35353 -184.2028,0.88112 -22.9956,-1.1476 -41.809,-2.59786 -64.9683,-5.0082 -26.3373,-2.74108 -61.3401,-5.86775 -89.3334,-7.97982 -10.2666,-0.77461 -22.5666,-2.02411 -27.3333,-2.77667 -4.7667,-0.75256 -11.6667,-1.67084 -15.3333,-2.04063 -3.6667,-0.36979 -7.8667,-1.19701 -9.3334,-1.83827 -1.4666,-0.64126 -6.2666,-1.54957 -10.6666,-2.01846 -9.9867,-1.06424 -24.7735,-2.84098 -38.6667,-4.64609 -5.8667,-0.76224 -12.76667,-1.65678 -15.33334,-1.98787 -12.72574,-1.64157 -29.4846,-4.21652 -39.33333,-6.04345 -3.66666,-0.68016 -10.56666,-1.91192 -15.33333,-2.73723 -10.69507,-1.85178 -18.83856,-3.41739 -26.66667,-5.12675 -3.3,-0.72059 -10.5,-2.18228 -16,-3.24819 -5.5,-1.06591 -13.6,-2.85836 -17.99999,-3.98322 -4.4,-1.12486 -15.2,-3.33311 -24,-4.90723 -8.8,-1.57411 -20.5,-3.69415 -26,-4.71119 -5.5,-1.01704 -13,-2.23822 -16.66667,-2.71374 -13.26169,-1.71986 -74.57843,-12.36792 -91.33333,-15.86063 -12.7666,-2.66131 -24.2235,-4.37983 -54.66666,-8.19993 -15.03334,-1.88643 -30.93334,-3.88269 -35.33334,-4.43614 -4.4,-0.55346 -17.3,-2.60224 -28.66666,-4.55285 -39.03206,-6.69821 -43.37911,-7.36751 -62,-9.54585 -10.26667,-1.20103 -24.66667,-3.01173 -32,-4.02379 -7.33333,-1.01205 -21.13333,-2.48768 -30.66666,-3.27917 -9.53334,-0.7915 -23.03334,-1.92217 -30,-2.5126 -19.26142,-1.63244 -89.10828,-1.76768 -108.66667,-0.21041 -9.53333,0.75906 -25.73333,1.97306 -35.99999,2.69778 -10.26667,0.72472 -22.26667,1.96844 -26.66667,2.76381 -23.98721,4.33611 -34.65121,6.58468 -45.33333,9.55882 -5.13333,1.42923 -11.73333,3.10643 -14.66667,3.7271 -6.92897,1.46611 -32.32356,8.8872 -46.66666,13.63744 -13.87743,4.59601 -62.00682,29.42535 -60.31595,31.11622 0.24866,0.24866 7.62147,-1.92908 16.38403,-4.83941 8.76255,-2.91033 17.73192,-5.80986 19.93192,-6.4434 2.2,-0.63353 6.7,-1.92794 10,-2.87645 8.36261,-2.40366 18.9294,-5.87947 30.66666,-10.08739 5.5,-1.9718 12.1,-4.04259 14.66667,-4.60175 2.56667,-0.55915 11.26667,-2.81289 19.33333,-5.00829 42.16692,-11.47605 41.86598,-11.42625 69.13265,-11.44207 32.52706,-0.0189 91.02022,1.3301 104.20068,2.4031 24.25874,1.97487 53.55896,6.28595 68.66666,10.10326 5.5,1.38971 17.8,4.0902 27.33334,6.00111 9.53333,1.9109 18.83333,3.97265 20.66666,4.58167 1.83333,0.60901 7.53333,1.83325 12.66667,2.72053 5.13333,0.88727 11.13333,2.12031 13.33333,2.74008 2.2,0.61977 7.6,1.81776 12,2.66221 9.08481,1.74357 28.68005,6.30326 34.66667,8.06673 12.51981,3.68794 35.27933,10.2186 45.99999,13.19931 3.3,0.91751 7.5,2.12903 9.33334,2.69226 1.83333,0.56324 6.03333,1.7644 9.33333,2.66925 3.3,0.90485 6.9,1.96506 8,2.35602 1.1,0.39096 2.72373,0.86327 3.60828,1.04957 4.75513,1.00151 15.99339,5.15033 17.72505,6.54354 2.76551,2.225 7.4087,3.74544 26.66667,8.73218 18.41803,4.76925 57.17185,15.71142 70.66666,19.95279 12.43718,3.90896 41.07056,12.12327 47.33333,13.57893 2.93334,0.6818 7.43334,1.76853 10,2.41496 19.2197,4.8406 40.10946,8.04104 71.19659,10.90775 8.14187,0.75081 16.30341,1.5909 18.13674,1.86688 4.66892,0.70282 37.06453,4.51687 50.66667,5.96516 11.30068,1.20324 29.42963,2.61532 67.3333,5.24463 17.2722,1.19814 45.2309,3.44124 76.6667,6.15089 4.7667,0.41087 28.1667,1.02981 52,1.37542 23.8333,0.34562 44.5333,0.8235 46,1.06197 5.8623,0.95317 52.2511,0.57651 78,-0.63333 z m 198,-103.15129 c 23.7572,-1.06887 50.5078,-3.87642 66,-6.92688 10.1647,-2.00147 16.0246,-3.17999 22,-4.42458 3.6666,-0.76372 9.9666,-1.99395 14,-2.73386 4.0333,-0.7399 10.3333,-1.97826 14,-2.75192 9.9755,-2.10481 34.1064,-5.81826 51.3333,-7.89957 15.9486,-1.92688 39.3062,-5.80614 47.3333,-7.8612 10.9372,-2.80004 16.1086,-4.05706 20,-4.8614 2.2,-0.45472 5.2,-1.31551 6.6667,-1.91286 4.8507,-1.97562 13.5895,-4.04638 17.076,-4.04638 1.8883,0 3.8041,-0.6 4.2573,-1.33333 0.4533,-0.73334 2.4887,-1.33334 4.5232,-1.33334 2.0345,0 4.1175,-0.41847 4.629,-0.92994 0.5115,-0.51147 4.6615,-1.94444 9.2222,-3.18437 4.5608,-1.23993 13.3923,-4.15329 19.6256,-6.47413 25.1681,-9.37079 67.1299,-23.72111 86.6667,-29.63871 4.7667,-1.44381 11.2724,-3.81263 14.4572,-5.26405 3.1848,-1.45142 9.1848,-3.86312 13.3334,-5.35933 4.1485,-1.49622 10.0862,-3.86693 13.1949,-5.26826 3.1086,-1.40133 6.4386,-2.54788 7.4,-2.54788 0.9613,0 2.3178,-0.50383 3.0145,-1.11963 0.6967,-0.6158 3.3667,-1.92153 5.9333,-2.90162 2.5667,-0.98009 8.274,-3.40402 12.6829,-5.38649 4.4089,-1.98248 10.9091,-4.58668 14.4449,-5.78712 3.5358,-1.20044 10.4286,-4.31078 15.3172,-6.91188 8.308,-4.42046 11.6904,-6.35131 21.4185,-12.22659 12.4743,-7.53392 34.0939,-19.98452 42.1365,-24.26628 16.919,-9.0073 40.9551,-23.795108 41.7778,-25.703003 0.2444,-0.566895 1.259,-1.030718 2.2546,-1.030718 0.9957,0 2.2351,-0.687506 2.7545,-1.527791 1.1087,-1.793988 -4.4471,-0.657074 -10.7869,2.207375 -2.2,0.994005 -6.7,2.708178 -10,3.809274 -3.3,1.101093 -11.1,3.901863 -17.3333,6.223923 -6.2333,2.32205 -13.1333,4.69246 -15.3333,5.26757 -4.4299,1.15801 -7.9784,2.35653 -12,4.05304 -1.4667,0.61871 -6.5667,2.39264 -11.3334,3.94207 -4.7666,1.54944 -9.7085,3.38882 -10.9819,4.08751 -1.2734,0.6987 -3.7034,1.27036 -5.4,1.27036 -1.6966,0 -3.6547,0.53881 -4.3514,1.19735 -1.4076,1.33057 -35.3488,13.33019 -40.6,14.35377 -1.8333,0.35736 -4.5333,1.13616 -6,1.73067 -1.4667,0.59451 -5.3667,1.85364 -8.6667,2.79808 -3.3,0.94443 -6.57,2.21282 -7.2666,2.81864 -0.6967,0.60582 -2.8267,1.10149 -4.7334,1.10149 -1.9066,0 -4.0366,0.5239 -4.7333,1.16422 -0.6967,0.64033 -6.6667,2.51643 -13.2667,4.16912 -6.6,1.65269 -12.57,3.52879 -13.2666,4.16911 -0.6967,0.64032 -2.9113,1.16422 -4.9213,1.16422 -2.0101,0 -4.0255,0.6 -4.4787,1.33333 -0.4533,0.73334 -2.2968,1.33334 -4.0968,1.33334 -1.8,0 -4.3146,0.56992 -5.588,1.2665 -2.7753,1.51819 -25.5161,7.42046 -34.3152,8.90639 -2.2,0.37152 -5.2,1.1894 -6.6667,1.81753 -1.4667,0.62812 -4.4667,1.51948 -6.6667,1.9808 -5.6651,1.18792 -13.6775,2.98316 -20.6666,4.63053 -3.3,0.77784 -9,2.03673 -12.6667,2.79754 -3.6667,0.76081 -9.3667,1.99289 -12.6667,2.73795 -3.3,0.74506 -9.3,1.8916 -13.3333,2.54787 -4.0333,0.65627 -10.3333,1.79788 -14,2.53691 -3.6667,0.73903 -8.7667,1.71443 -11.3333,2.16755 -2.5667,0.45313 -9.4667,1.72569 -15.3334,2.82792 -5.8666,1.10223 -14.2666,2.57554 -18.6666,3.27401 -4.4,0.69848 -11.3,1.87249 -15.3334,2.60892 -4.0333,0.73642 -10.9333,1.89123 -15.3333,2.56624 -4.4,0.67502 -11.3,1.82342 -15.3333,2.552 -4.0334,0.72858 -10.6334,1.91975 -14.6667,2.64704 -4.0333,0.72729 -10.9333,1.98772 -15.3333,2.80096 -21.5245,3.97832 -24.8609,4.54367 -46.6667,7.90758 -5.1333,0.7919 -13.2333,2.064 -18,2.82689 -4.7667,0.76288 -12.8667,1.97777 -18,2.69975 -5.1333,0.72198 -13.2333,1.88487 -18,2.58421 -19.4589,2.8549 -54.808,6.52526 -70,7.26822 -43.3176,2.11844 -60.9666,2.67629 -76.6666,2.42329 -29.8594,-0.48117 -78.1731,-1.67657 -98,-2.42476 -10.2667,-0.38742 -33.6667,-1.25422 -52,-1.92622 -18.3334,-0.67199 -41.4334,-1.81697 -51.3334,-2.54439 -9.9,-0.72742 -26.1,-1.73972 -36,-2.24956 -17.769,-0.91508 -22.6666,-1.94544 -22.6666,-4.76853 0,-1.54471 18.8407,-0.97874 48.6666,1.46192 8.8,0.72011 19.9,1.61508 24.6667,1.98882 10.6387,0.83417 56.3217,3.10433 88.6667,4.40619 30.9021,1.24379 157.6671,1.23816 173.3333,-0.008 22.112,-1.75846 43.9635,-3.77488 48,-4.42934 2.2,-0.35671 8.8,-1.21433 14.6666,-1.90583 13.4492,-1.58524 26.8724,-3.47084 38,-5.338 4.7667,-0.79982 12.2667,-1.74579 16.6667,-2.10217 4.4,-0.35637 9.2,-1.15505 10.6667,-1.77485 2.5361,-1.07177 9.4466,-2.35161 29.6666,-5.49437 4.95,-0.76937 11.5587,-1.96937 14.6858,-2.66666 3.1272,-0.6973 8.0418,-1.26782 10.9214,-1.26782 2.8795,0 5.5598,-0.52478 5.9562,-1.16618 0.3964,-0.64141 3.8818,-1.54466 7.7454,-2.00723 3.8635,-0.46258 9.7246,-1.17185 13.0246,-1.57616 3.3,-0.40431 7.2,-1.26973 8.6666,-1.92316 1.4667,-0.65342 5.3667,-1.49113 8.6667,-1.86157 6.71,-0.75323 17.3141,-2.60092 27.3333,-4.76264 3.6667,-0.79111 10.5667,-1.99638 15.3334,-2.67837 4.7666,-0.682 11.9666,-1.86404 16,-2.62677 4.0333,-0.76272 10.6333,-1.95108 14.6666,-2.64079 4.0334,-0.68971 10.0334,-1.89943 13.3334,-2.68827 3.3,-0.78884 9.3,-2.00761 13.3333,-2.70838 4.0333,-0.70078 9.7333,-1.9494 12.6667,-2.7747 2.9333,-0.82531 7.4333,-1.78195 10,-2.12585 2.5666,-0.34391 5.8666,-1.15088 7.3333,-1.79326 1.4667,-0.64239 4.7667,-1.44936 7.3333,-1.79326 2.5667,-0.34391 6.9167,-1.28112 9.6667,-2.08268 14.5011,-4.22676 21.6171,-6.10995 28.3333,-7.49815 2.2,-0.45473 5.2,-1.33639 6.6667,-1.95925 1.4667,-0.62285 4.1667,-1.43591 6,-1.8068 3.1614,-0.63955 8.14,-1.98052 18.6667,-5.02781 2.5666,-0.74301 6.1666,-1.65437 8,-2.02525 3.3335,-0.67438 7.9589,-2.41294 12.3152,-4.62903 1.2734,-0.64778 3.7034,-1.17777 5.4,-1.17777 1.6966,0 3.6548,-0.47752 4.3514,-1.06115 1.4261,-1.19468 7.4046,-3.15417 17.2667,-5.65924 3.6667,-0.93137 7.2667,-2.08873 8,-2.57191 0.7333,-0.48319 5.8333,-2.26153 11.3333,-3.95188 12.52,-3.84783 19.5308,-6.46592 25.6486,-9.57805 1.2734,-0.64778 3.788,-1.17777 5.588,-1.17777 1.8,0 3.6435,-0.6 4.0968,-1.33334 0.4532,-0.73333 2.2532,-1.33333 4,-1.33333 1.7467,0 3.5467,-0.6 4,-1.33333 0.4532,-0.73334 1.9886,-1.33334 3.412,-1.33334 1.4234,0 2.588,-0.6 2.588,-1.33333 0,-1.64934 -1.6276,-1.68967 -5.604,-0.13885 -1.6845,0.65696 -5.4627,1.82983 -8.396,2.60637 -2.9334,0.77655 -9.5334,2.64406 -14.6667,4.15004 -5.1333,1.50598 -11.7333,3.41348 -14.6667,4.23888 -2.9333,0.82541 -8.6733,2.62037 -12.7554,3.98882 -4.0822,1.36844 -8.5422,2.48807 -9.9112,2.48807 -1.3691,0 -5.8291,1.12251 -9.9113,2.49445 -14.6593,4.92676 -22.1811,7.18591 -27.7554,8.3362 -3.1167,0.64314 -8.2167,1.71657 -11.3333,2.38539 -14.2155,3.05057 -20.6731,4.32867 -25,4.94801 -2.5667,0.36739 -5.8667,1.19357 -7.3334,1.83595 -1.4666,0.64239 -4.7666,1.48019 -7.3333,1.86179 -2.5667,0.38159 -7.9667,1.31306 -12,2.06994 -4.0333,0.75687 -10.9333,1.98759 -15.3333,2.73494 -4.4,0.74735 -11.3,1.94735 -15.3334,2.66667 -16.6016,2.96078 -44.2466,7.06614 -62.6666,9.30616 -6.9667,0.84721 -13.8667,1.8402 -15.3334,2.20665 -1.4666,0.36645 -6.8666,1.20338 -12,1.85983 -5.1333,0.65645 -14.1333,1.82023 -20,2.58616 -14.0846,1.83883 -32.4479,4.10014 -44,5.41825 -5.1333,0.58572 -14.4333,1.72097 -20.6666,2.52278 -12.8424,1.65194 -32.4663,3.63373 -54,5.45337 -8.0667,0.68165 -19.1667,1.86002 -24.6667,2.6186 -5.5,0.75858 -15.1,1.92478 -21.3333,2.59156 -6.2334,0.66677 -12.2334,1.51916 -13.3334,1.89419 -1.1,0.37503 -24.5,1.36507 -52,2.20008 -35.2088,1.06909 -55.4287,2.28887 -68.3513,4.12332 -15.9727,2.26744 -25.931,2.60397 -76.8275,2.59635 -32.1618,-0.005 -81.2037,-0.60659 -108.9819,-1.33727 -46.9241,-1.23429 -58.9824,-1.90863 -96.5673,-5.40036 -7.7338,-0.71849 -16.534,-1.30634 -19.5561,-1.30634 -3.022,0 -14.9943,-1.50816 -26.6052,-3.35146 -11.6109,-1.84331 -26.8106,-3.93978 -33.7773,-4.65883 -22.0725,-2.27817 -34.7477,-3.78907 -56.66667,-6.75473 -11.73333,-1.58753 -25.23333,-3.3424 -30,-3.89971 -4.76666,-0.5573 -14.66666,-2.25742 -22,-3.77805 -7.33333,-1.52062 -16.93333,-3.35801 -21.33333,-4.08307 -10.21036,-1.68255 -52.06432,-10.48347 -57.33333,-12.05589 -2.2,-0.65654 -6.4,-1.55954 -9.33333,-2.00667 l -5.33334,-0.81297 3.47751,3.1407 c 3.33017,3.00762 23.71556,12.42243 59.18916,27.33596 23.50291,9.88092 62.49023,24.75468 70.66666,26.95951 2.2,0.59325 8.2,2.35196 13.33333,3.90826 5.13334,1.55629 11.73334,3.36719 14.66667,4.02422 2.93333,0.65703 7.73337,1.84186 10.66667,2.63296 2.9333,0.7911 8.0333,2.05901 11.3333,2.81759 7.4825,1.71999 13.9636,3.35473 20,5.04466 2.5667,0.71855 8.2667,2.267 12.6667,3.44099 4.4,1.174 13.7,3.9333 20.6667,6.13179 6.9666,2.19849 16.8666,4.90494 22,6.01433 5.1333,1.10939 15.0333,3.25911 22,4.77715 16.6257,3.62277 23.0881,4.68302 71.6093,11.74856 15.5518,2.26462 33.2518,4.67918 39.3333,5.36568 17.3672,1.96047 48.3882,5.21146 63.724,6.67824 7.7,0.73646 17.6,1.68935 22,2.11753 4.4,0.42818 14.3,1.37202 22,2.09743 7.7,0.72541 29.6,1.63929 48.6667,2.03084 19.0666,0.39156 38.8666,1.17162 44,1.73349 9.5332,1.04345 29.1264,0.87587 60,-0.51319 z M 2013.9999,112 c 0.4674,-0.75621 -0.6528,-1.33333 -2.5879,-1.33333 -1.8767,0 -3.4121,0.6 -3.4121,1.33333 0,0.73334 1.1646,1.33334 2.588,1.33334 1.4234,0 2.9588,-0.6 3.412,-1.33334 z m 8.6667,-2.66666 c 0,-0.73334 1.5,-1.33334 3.3333,-1.33334 1.8334,0 3.3334,-0.6 3.3334,-1.33333 0,-1.74633 -1.5919,-1.6819 -8.021,0.32464 -6.0002,1.87263 -6.9709,3.67536 -1.979,3.67536 1.8333,0 3.3333,-0.6 3.3333,-1.33333 z m 14,-5.33334 c 1.0492,-1.69758 -2.0399,-1.69758 -4.6667,0 -1.6259,1.05078 -1.4536,1.29632 0.9213,1.31292 1.6068,0.0112 3.2922,-0.57958 3.7454,-1.31292 z m 7.3333,-2.66666 c 1.626,-1.05079 1.4537,-1.29632 -0.9213,-1.31292 -1.6067,-0.0112 -3.2921,0.57958 -3.7453,1.31292 -1.0492,1.69758 2.0398,1.69758 4.6666,0 z m 6.3056,-2.138893 c -0.4431,-0.443056 -1.5931,-0.490424 -2.5556,-0.105263 -1.0636,0.425635 -0.7477,0.741577 0.8056,0.805555 1.4055,0.0579 2.193,-0.257237 1.75,-0.700292 z m 8.3611,-3.194445 c 0,-0.733333 -0.6,-1.333333 -1.3333,-1.333333 -0.7334,0 -1.3334,0.6 -1.3334,1.333333 0,0.733334 0.6,1.333334 1.3334,1.333334 0.7333,0 1.3333,-0.6 1.3333,-1.333334 z m 11.6667,-3.660231 c 1.65,-0.357853 3,-1.180695 3,-1.828538 0,-1.700643 -1.6918,-1.459836 -6.4619,0.919758 -4.4042,2.197135 -5.9066,4.236299 -1.8715,2.540201 1.2834,-0.539428 3.6834,-1.273568 5.3334,-1.631421 z m 9.6666,-4.339769 c 0,-0.733333 -0.5646,-1.333333 -1.2546,-1.333333 -0.6901,0 -1.6255,0.6 -2.0787,1.333333 -0.4532,0.733333 0.1114,1.333333 1.2546,1.333333 1.1433,0 2.0787,-0.6 2.0787,-1.333333 z m 6.3056,-2.138889 c -0.4431,-0.443055 -1.5931,-0.490424 -2.5556,-0.105263 -1.0636,0.425635 -0.7477,0.741577 0.8056,0.805556 1.4055,0.05789 2.193,-0.257237 1.75,-0.700293 z m 7.0278,-3.152598 c 0,-0.710318 -0.9,-0.946125 -2,-0.524015 -1.1,0.42211 -2,1.003279 -2,1.291487 0,0.288208 0.9,0.524015 2,0.524015 1.1,0 2,-0.581169 2,-1.291487 z M 75.666664,210.71173 c -3.119706,-2.47189 -3.666667,-3.89519 -3.666667,-9.54138 0,-3.64986 0.910157,-8.39615 2.02257,-10.54732 4.111113,-7.95002 15.412583,-10.31501 23.446919,-4.90659 13.951134,9.39139 7.744604,25.59782 -10.42215,27.21421 -6.54452,0.5823 -8.269892,0.2459 -11.380672,-2.21892 z m 16.999509,-8.52385 c 2.466694,-3.76465 1.609357,-6.59716 -2.888921,-9.54455 -3.118572,-2.04336 -3.452649,-2.02713 -5.211812,0.25335 -2.890396,3.74693 -3.704148,8.26132 -1.884406,10.45397 2.501277,3.01386 7.640647,2.41538 9.985139,-1.16277 z M 8.2835819,182.88415 c -12.163388,-6.4865 -10.4673112,-22.98709 3.3001691,-32.10629 7.36432,-4.87792 11.124764,-6.05775 15.670959,-4.91673 3.882348,0.97441 12.074072,9.32107 14.219842,14.4888 2.214407,5.33303 -0.760753,14.84738 -6.409045,20.49568 -4.220437,4.22043 -5.02113,4.4844 -13.443286,4.43184 -5.887242,-0.0367 -10.457268,-0.85672 -13.3386391,-2.3933 z M 30.61566,169.5685 c 1.023342,-3.70624 0.878966,-5.47453 -0.635722,-7.78624 -2.36364,-3.60737 -9.87782,-5.31098 -13.90916,-3.15347 -2.424524,1.29757 -2.813344,2.5218 -2.473729,7.78872 0.373108,5.78636 0.735555,6.35667 4.894043,7.70077 7.109926,2.29808 10.594867,0.99034 12.124568,-4.54978 z"
       id="path1" />
  </g>
</svg>
